<svg width="24" height="24" viewBox="0 0 24 24" fill="none" xmlns="http://www.w3.org/2000/svg">
<path d="M9.53904 7.58095C6.43517 6.66435 3.54877 7.96377 1.17099 10.3416L6.27342 13.1633" fill="#D0F3F5"/>
<path d="M9.53904 7.58095C6.43517 6.66435 3.54877 7.96377 1.17099 10.3416L6.27342 13.1633" stroke="#3FB8C0" stroke-width="2" stroke-linecap="round" stroke-linejoin="round"/>
<path d="M16.4261 14.4663C17.3427 17.572 16.0433 20.4566 13.6637 22.8361L10.842 17.7319" fill="#D0F3F5"/>
<path d="M16.4261 14.4663C17.3427 17.572 16.0433 20.4566 13.6637 22.8361L10.842 17.7319" stroke="#3FB8C0" stroke-width="2" stroke-linecap="round" stroke-linejoin="round"/>
<path d="M6.27341 13.1472L10.8528 17.7266C14.5192 15.5321 18.6835 13.406 20.585 11.4362C24.6971 7.32044 22.3122 1.68783 22.3122 1.68783C22.3122 1.68783 16.6778 -0.69714 12.5638 3.41499C10.594 5.3165 8.45169 9.50052 6.27341 13.149V13.1472Z" fill="white" stroke="#3FB8C0" stroke-width="2" stroke-linecap="round" stroke-linejoin="round"/>
<path d="M16.4477 7.39784C16.5297 7.48703 16.6289 7.55873 16.7392 7.60862C16.8496 7.65851 16.969 7.68557 17.0901 7.68816C17.2112 7.69076 17.3316 7.66884 17.444 7.62372C17.5565 7.5786 17.6586 7.51121 17.7443 7.42561C17.8301 7.34001 17.8976 7.23796 17.9429 7.1256C17.9881 7.01324 18.0102 6.89288 18.0078 6.77176C18.0054 6.65064 17.9785 6.53126 17.9288 6.4208C17.879 6.31034 17.8075 6.21107 17.7184 6.12897C17.5489 5.96527 17.3219 5.8747 17.0863 5.87674C16.8507 5.87879 16.6253 5.9733 16.4587 6.13991C16.292 6.30653 16.1975 6.53192 16.1955 6.76753C16.1934 7.00315 16.284 7.23015 16.4477 7.39963V7.39784Z" fill="#3DB8C0" stroke="#3FB8C0" stroke-width="2" stroke-linecap="round" stroke-linejoin="round"/>
<path d="M5.22201 21.9016C4.81942 22.2916 3.75005 22.6618 2.73639 22.944C2.50305 23.0133 2.25531 23.0183 2.01936 22.9585C1.7834 22.8987 1.56798 22.7762 1.39586 22.6041C1.22373 22.432 1.10129 22.2166 1.04146 21.9806C0.98163 21.7446 0.986637 21.4969 1.05595 21.2636C1.33632 20.2481 1.70656 19.1805 2.09836 18.7779C2.30096 18.5614 2.54506 18.3878 2.81613 18.2675C3.0872 18.1472 3.3797 18.0827 3.67622 18.0778C3.97273 18.0729 4.26721 18.1277 4.5421 18.239C4.817 18.3503 5.0667 18.5157 5.27634 18.7254C5.48597 18.9352 5.65126 19.185 5.76237 19.46C5.87347 19.7349 5.92811 20.0294 5.92304 20.3259C5.91797 20.6225 5.8533 20.9149 5.73286 21.1859C5.61242 21.4569 5.43869 21.7009 5.22201 21.9034V21.9016Z" fill="#D0F3F5" stroke="#3FB8C0" stroke-width="2" stroke-linecap="round" stroke-linejoin="round"/>
<path d="M10.8528 17.7265L6.27341 13.1489C6.77664 12.3042 7.27987 11.4325 7.77592 10.568C8.15334 9.91025 8.53077 9.25785 8.9028 8.62341L15.3747 15.0971C14.7673 15.4548 14.1418 15.816 13.5128 16.1755C12.6231 16.6895 11.7245 17.2071 10.8528 17.7283V17.7265Z" fill="#D0F3F5" stroke="#3FB8C0" stroke-width="2"/>
</svg>
